<svg xmlns="http://www.w3.org/2000/svg" xmlns:xlink="http://www.w3.org/1999/xlink" width="500" zoomAndPan="magnify" viewBox="0 0 375 374.999991" height="500" preserveAspectRatio="xMidYMid meet" version="1.0"><defs><g/><clipPath id="be4c196ff1"><path d="M 79.574219 66.210938 L 273.824219 66.210938 L 273.824219 168 L 79.574219 168 Z M 79.574219 66.210938 " clip-rule="nonzero"/></clipPath><clipPath id="7ee7c827f1"><path d="M 81.582031 174.132812 L 271.460938 174.132812 L 271.460938 240.957031 L 81.582031 240.957031 Z M 81.582031 174.132812 " clip-rule="nonzero"/></clipPath><clipPath id="35e5b54d1d"><path d="M 266.980469 187.222656 L 221.589844 186.140625 L 176.199219 185.09375 L 171.496094 184.992188 L 177.40625 184.617188 L 223.34375 181.671875 L 269.277344 178.679688 L 269.328125 178.679688 C 270.523438 178.597656 271.460938 177.601562 271.445312 176.390625 C 271.433594 175.136719 270.40625 174.128906 269.148438 174.144531 L 222.929688 174.605469 L 176.707031 175.125 L 130.488281 175.714844 C 115.082031 175.933594 99.675781 176.148438 84.269531 176.414062 C 99.675781 176.679688 115.082031 176.894531 130.488281 177.113281 L 176.707031 177.703125 L 191.09375 177.867188 L 177.058594 178.542969 L 131.085938 180.808594 L 85.109375 183.109375 C 83.238281 183.207031 81.707031 184.726562 81.644531 186.628906 C 81.582031 188.640625 83.160156 190.320312 85.175781 190.386719 L 85.21875 190.386719 L 130.597656 191.84375 L 163.566406 192.878906 L 90.472656 196.96875 C 88.097656 197.105469 86.152344 199.03125 86.066406 201.453125 C 85.972656 204.023438 87.988281 206.183594 90.566406 206.273438 L 90.570312 206.273438 L 171.351562 209.160156 L 102.925781 213.921875 L 102.871094 213.925781 C 100.847656 214.074219 99.222656 215.726562 99.160156 217.792969 C 99.09375 220 100.832031 221.84375 103.046875 221.910156 L 173.730469 224.058594 L 188.640625 224.492188 L 183.738281 224.910156 L 123.199219 230.15625 L 123.15625 230.160156 C 122.066406 230.253906 121.195312 231.148438 121.164062 232.265625 C 121.125 233.464844 122.074219 234.472656 123.28125 234.503906 L 172.402344 235.976562 L 200.457031 236.773438 L 183.671875 238.035156 L 164.753906 239.484375 L 145.84375 240.957031 L 164.792969 240.09375 L 183.746094 239.199219 L 221.640625 237.371094 C 222.195312 237.339844 222.652344 236.898438 222.683594 236.335938 C 222.714844 235.734375 222.25 235.21875 221.648438 235.1875 L 221.617188 235.1875 L 172.539062 232.632812 L 160.015625 232 L 184.164062 230.34375 L 244.78125 226.109375 C 246.386719 225.996094 247.6875 224.699219 247.753906 223.058594 C 247.828125 221.296875 246.457031 219.8125 244.691406 219.738281 L 244.648438 219.734375 L 181.371094 217.089844 L 259.261719 212.179688 C 261.542969 212.027344 263.40625 210.179688 263.492188 207.851562 C 263.585938 205.363281 261.640625 203.269531 259.144531 203.175781 L 259.128906 203.175781 L 189.707031 200.570312 L 223.085938 198.617188 L 267.109375 196.011719 L 267.152344 196.007812 C 269.410156 195.867188 271.226562 194.019531 271.28125 191.722656 C 271.339844 189.292969 269.414062 187.277344 266.980469 187.222656 Z M 266.980469 187.222656 " clip-rule="nonzero"/></clipPath><clipPath id="c94d71ffc0"><path d="M 266.980469 187.222656 L 221.589844 186.140625 L 176.199219 185.09375 L 171.496094 184.992188 L 177.40625 184.617188 L 223.34375 181.671875 L 269.277344 178.679688 L 269.328125 178.679688 C 270.523438 178.597656 271.460938 177.601562 271.445312 176.390625 C 271.433594 175.136719 270.40625 174.128906 269.148438 174.144531 L 222.929688 174.605469 L 176.707031 175.125 L 130.488281 175.714844 C 115.082031 175.933594 99.675781 176.148438 84.269531 176.414062 C 99.675781 176.679688 115.082031 176.894531 130.488281 177.113281 L 176.707031 177.703125 L 191.09375 177.867188 L 177.058594 178.542969 L 131.085938 180.808594 L 85.109375 183.109375 C 83.238281 183.207031 81.707031 184.726562 81.644531 186.628906 C 81.582031 188.640625 83.160156 190.320312 85.175781 190.386719 L 85.21875 190.386719 L 130.597656 191.84375 L 163.566406 192.878906 L 90.472656 196.96875 C 88.097656 197.105469 86.152344 199.03125 86.066406 201.453125 C 85.972656 204.023438 87.988281 206.183594 90.566406 206.273438 L 90.570312 206.273438 L 171.351562 209.160156 L 102.925781 213.921875 L 102.871094 213.925781 C 100.847656 214.074219 99.222656 215.726562 99.160156 217.792969 C 99.09375 220 100.832031 221.84375 103.046875 221.910156 L 173.730469 224.058594 L 188.640625 224.492188 L 183.738281 224.910156 L 123.199219 230.15625 L 123.15625 230.160156 C 122.066406 230.253906 121.195312 231.148438 121.164062 232.265625 C 121.125 233.464844 122.074219 234.472656 123.28125 234.503906 L 172.402344 235.976562 L 200.457031 236.773438 L 183.671875 238.035156 L 164.753906 239.484375 L 145.84375 240.957031 L 164.792969 240.09375 L 183.746094 239.199219 L 221.640625 237.371094 C 222.195312 237.339844 222.652344 236.898438 222.683594 236.335938 C 222.714844 235.734375 222.25 235.21875 221.648438 235.1875 L 221.617188 235.1875 L 172.539062 232.632812 L 160.015625 232 L 184.164062 230.34375 L 244.78125 226.109375 C 246.386719 225.996094 247.6875 224.699219 247.753906 223.058594 C 247.828125 221.296875 246.457031 219.8125 244.691406 219.738281 L 244.648438 219.734375 L 181.371094 217.089844 L 259.261719 212.179688 C 261.542969 212.027344 263.40625 210.179688 263.492188 207.851562 C 263.585938 205.363281 261.640625 203.269531 259.144531 203.175781 L 259.128906 203.175781 L 189.707031 200.570312 L 223.085938 198.617188 L 267.109375 196.011719 L 267.152344 196.007812 C 269.410156 195.867188 271.226562 194.019531 271.28125 191.722656 C 271.339844 189.292969 269.414062 187.277344 266.980469 187.222656 " clip-rule="nonzero"/></clipPath><linearGradient x1="0.0167266" gradientTransform="matrix(0, 121.928937, -122.241399, 0, 176.54567, 172.094696)" y1="0" x2="0.56478" gradientUnits="userSpaceOnUse" y2="0" id="15d03c8ef2"><stop stop-opacity="1" stop-color="rgb(0%, 99.198914%, 99.598694%)" offset="0"/><stop stop-opacity="1" stop-color="rgb(0%, 99.015808%, 99.598694%)" offset="0.0078125"/><stop stop-opacity="1" stop-color="rgb(0%, 98.815918%, 99.420166%)" offset="0.015625"/><stop stop-opacity="1" stop-color="rgb(0%, 98.600769%, 99.220276%)" offset="0.0195312"/><stop stop-opacity="1" stop-color="rgb(0%, 98.402405%, 99.198914%)" offset="0.0234375"/><stop stop-opacity="1" stop-color="rgb(0%, 98.207092%, 99.198914%)" offset="0.03125"/><stop stop-opacity="1" stop-color="rgb(0%, 97.821045%, 99.014282%)" offset="0.046875"/><stop stop-opacity="1" stop-color="rgb(0%, 97.4823%, 98.814392%)" offset="0.0625"/><stop stop-opacity="1" stop-color="rgb(0%, 97.122192%, 98.603821%)" offset="0.0664063"/><stop stop-opacity="1" stop-color="rgb(0%, 96.910095%, 98.410034%)" offset="0.0703125"/><stop stop-opacity="1" stop-color="rgb(0%, 96.903992%, 98.403931%)" offset="0.078125"/><stop stop-opacity="1" stop-color="rgb(0%, 96.713257%, 98.399353%)" offset="0.0859375"/><stop stop-opacity="1" stop-color="rgb(0%, 96.513367%, 98.399353%)" offset="0.09375"/><stop stop-opacity="1" stop-color="rgb(0%, 96.322632%, 98.222351%)" offset="0.101562"/><stop stop-opacity="1" stop-color="rgb(0%, 95.925903%, 98.022461%)" offset="0.105469"/><stop stop-opacity="1" stop-color="rgb(0%, 95.706177%, 97.999573%)" offset="0.109375"/><stop stop-opacity="1" stop-color="rgb(0%, 95.513916%, 97.81189%)" offset="0.125"/><stop stop-opacity="1" stop-color="rgb(0%, 95.132446%, 97.612%)" offset="0.140625"/><stop stop-opacity="1" stop-color="rgb(0%, 94.721985%, 97.599792%)" offset="0.144531"/><stop stop-opacity="1" stop-color="rgb(0%, 94.502258%, 97.599792%)" offset="0.148438"/><stop stop-opacity="1" stop-color="rgb(0%, 94.500732%, 97.453308%)" offset="0.15625"/><stop stop-opacity="1" stop-color="rgb(0%, 94.309998%, 97.303772%)" offset="0.164062"/><stop stop-opacity="1" stop-color="rgb(0%, 94.110107%, 97.299194%)" offset="0.171875"/><stop stop-opacity="1" stop-color="rgb(0%, 93.919373%, 97.119141%)" offset="0.179688"/><stop stop-opacity="1" stop-color="rgb(0%, 93.544006%, 96.91925%)" offset="0.1875"/><stop stop-opacity="1" stop-color="rgb(0%, 93.32428%, 96.899414%)" offset="0.195312"/><stop stop-opacity="1" stop-color="rgb(0%, 93.107605%, 96.899414%)" offset="0.203125"/><stop stop-opacity="1" stop-color="rgb(0%, 92.907715%, 96.711731%)" offset="0.210938"/><stop stop-opacity="1" stop-color="rgb(0%, 92.71698%, 96.511841%)" offset="0.21875"/><stop stop-opacity="1" stop-color="rgb(0%, 92.384338%, 96.499634%)" offset="0.226562"/><stop stop-opacity="1" stop-color="rgb(0%, 92.216492%, 96.30127%)" offset="0.230469"/><stop stop-opacity="1" stop-color="rgb(0%, 92.199707%, 96.104431%)" offset="0.234375"/><stop stop-opacity="1" stop-color="rgb(0%, 92.00592%, 96.101379%)" offset="0.242188"/><stop stop-opacity="1" stop-color="rgb(0%, 91.618347%, 96.099854%)" offset="0.25"/><stop stop-opacity="1" stop-color="rgb(0%, 91.2323%, 95.9198%)" offset="0.265625"/><stop stop-opacity="1" stop-color="rgb(0%, 91.020203%, 95.71991%)" offset="0.273438"/><stop stop-opacity="1" stop-color="rgb(0%, 90.803528%, 95.698547%)" offset="0.28125"/><stop stop-opacity="1" stop-color="rgb(0%, 90.414429%, 95.509338%)" offset="0.289062"/><stop stop-opacity="1" stop-color="rgb(0%, 90.208435%, 95.309448%)" offset="0.296875"/><stop stop-opacity="1" stop-color="rgb(0%, 90.0177%, 95.298767%)" offset="0.304687"/><stop stop-opacity="1" stop-color="rgb(0%, 89.81781%, 95.298767%)" offset="0.3125"/><stop stop-opacity="1" stop-color="rgb(0%, 89.602661%, 95.103455%)" offset="0.316406"/><stop stop-opacity="1" stop-color="rgb(0%, 89.407349%, 94.908142%)" offset="0.320312"/><stop stop-opacity="1" stop-color="rgb(0%, 89.212036%, 94.903564%)" offset="0.328125"/><stop stop-opacity="1" stop-color="rgb(0%, 88.825989%, 94.715881%)" offset="0.34375"/><stop stop-opacity="1" stop-color="rgb(0%, 88.616943%, 94.515991%)" offset="0.351562"/><stop stop-opacity="1" stop-color="rgb(0%, 88.401794%, 94.499207%)" offset="0.355469"/><stop stop-opacity="1" stop-color="rgb(0%, 88.204956%, 94.499207%)" offset="0.359375"/><stop stop-opacity="1" stop-color="rgb(0%, 88.008118%, 94.499207%)" offset="0.363281"/><stop stop-opacity="1" stop-color="rgb(0%, 87.812805%, 94.499207%)" offset="0.367188"/><stop stop-opacity="1" stop-color="rgb(0%, 87.805176%, 94.309998%)" offset="0.375"/><stop stop-opacity="1" stop-color="rgb(0%, 87.649536%, 94.110107%)" offset="0.390625"/><stop stop-opacity="1" stop-color="rgb(0%, 87.30011%, 93.899536%)" offset="0.394531"/><stop stop-opacity="1" stop-color="rgb(0%, 87.10022%, 93.701172%)" offset="0.398437"/><stop stop-opacity="1" stop-color="rgb(0%, 86.904907%, 93.699646%)" offset="0.40625"/><stop stop-opacity="1" stop-color="rgb(0%, 86.51886%, 93.699646%)" offset="0.421875"/><stop stop-opacity="1" stop-color="rgb(0%, 86.132812%, 93.518066%)" offset="0.429688"/><stop stop-opacity="1" stop-color="rgb(0%, 85.917664%, 93.318176%)" offset="0.4375"/><stop stop-opacity="1" stop-color="rgb(0%, 85.702515%, 93.299866%)" offset="0.441406"/><stop stop-opacity="1" stop-color="rgb(0%, 85.507202%, 93.299866%)" offset="0.445312"/><stop stop-opacity="1" stop-color="rgb(0%, 85.502625%, 93.107605%)" offset="0.453125"/><stop stop-opacity="1" stop-color="rgb(0%, 85.31189%, 92.906189%)" offset="0.460937"/><stop stop-opacity="1" stop-color="rgb(0%, 84.93042%, 92.89856%)" offset="0.46875"/><stop stop-opacity="1" stop-color="rgb(0%, 84.716797%, 92.89856%)" offset="0.476563"/><stop stop-opacity="1" stop-color="rgb(0%, 84.500122%, 92.700195%)" offset="0.480469"/><stop stop-opacity="1" stop-color="rgb(0%, 84.303284%, 92.503357%)" offset="0.484375"/><stop stop-opacity="1" stop-color="rgb(0%, 84.112549%, 92.500305%)" offset="0.5"/><stop stop-opacity="1" stop-color="rgb(0%, 83.726501%, 92.359924%)" offset="0.507812"/><stop stop-opacity="1" stop-color="rgb(0%, 83.514404%, 92.210388%)" offset="0.515625"/><stop stop-opacity="1" stop-color="rgb(0%, 83.299255%, 92.199707%)" offset="0.519531"/><stop stop-opacity="1" stop-color="rgb(0%, 83.099365%, 92.199707%)" offset="0.523438"/><stop stop-opacity="1" stop-color="rgb(0%, 83.099365%, 92.199707%)" offset="0.53125"/><stop stop-opacity="1" stop-color="rgb(0%, 82.90863%, 92.008972%)" offset="0.539062"/><stop stop-opacity="1" stop-color="rgb(0%, 82.568359%, 91.809082%)" offset="0.546875"/><stop stop-opacity="1" stop-color="rgb(0%, 82.232666%, 91.622925%)" offset="0.5625"/><stop stop-opacity="1" stop-color="rgb(0%, 82.022095%, 91.421509%)" offset="0.570312"/><stop stop-opacity="1" stop-color="rgb(0%, 81.806946%, 91.398621%)" offset="0.578125"/><stop stop-opacity="1" stop-color="rgb(0%, 81.419373%, 91.398621%)" offset="0.585938"/><stop stop-opacity="1" stop-color="rgb(0%, 81.211853%, 91.215515%)" offset="0.59375"/><stop stop-opacity="1" stop-color="rgb(0%, 81.021118%, 91.015625%)" offset="0.601562"/><stop stop-opacity="1" stop-color="rgb(0%, 80.821228%, 90.99884%)" offset="0.609375"/><stop stop-opacity="1" stop-color="rgb(0%, 80.606079%, 90.805054%)" offset="0.617187"/><stop stop-opacity="1" stop-color="rgb(0%, 80.21698%, 90.605164%)" offset="0.625"/><stop stop-opacity="1" stop-color="rgb(0%, 79.830933%, 90.419006%)" offset="0.640625"/><stop stop-opacity="1" stop-color="rgb(0%, 79.418945%, 90.219116%)" offset="0.644531"/><stop stop-opacity="1" stop-color="rgb(0%, 79.199219%, 90.19928%)" offset="0.648437"/><stop stop-opacity="1" stop-color="rgb(0%, 79.199219%, 90.19928%)" offset="0.65625"/><stop stop-opacity="1" stop-color="rgb(0%, 79.008484%, 90.19928%)" offset="0.664062"/><stop stop-opacity="1" stop-color="rgb(0%, 78.808594%, 90.013123%)" offset="0.671875"/><stop stop-opacity="1" stop-color="rgb(0%, 78.617859%, 89.813232%)" offset="0.679687"/><stop stop-opacity="1" stop-color="rgb(0%, 78.240967%, 89.7995%)" offset="0.6875"/><stop stop-opacity="1" stop-color="rgb(0%, 78.022766%, 89.602661%)" offset="0.691406"/><stop stop-opacity="1" stop-color="rgb(0%, 77.999878%, 89.405823%)" offset="0.695312"/><stop stop-opacity="1" stop-color="rgb(0%, 77.806091%, 89.402771%)" offset="0.703125"/><stop stop-opacity="1" stop-color="rgb(0%, 77.468872%, 89.399719%)" offset="0.71875"/><stop stop-opacity="1" stop-color="rgb(0%, 77.133179%, 89.221191%)" offset="0.726562"/><stop stop-opacity="1" stop-color="rgb(0%, 76.921082%, 89.021301%)" offset="0.734375"/><stop stop-opacity="1" stop-color="rgb(0%, 76.704407%, 88.999939%)" offset="0.742188"/><stop stop-opacity="1" stop-color="rgb(0%, 76.504517%, 88.809204%)" offset="0.75"/><stop stop-opacity="1" stop-color="rgb(0%, 76.313782%, 88.609314%)" offset="0.757812"/><stop stop-opacity="1" stop-color="rgb(0%, 75.933838%, 88.598633%)" offset="0.765625"/><stop stop-opacity="1" stop-color="rgb(0%, 75.718689%, 88.598633%)" offset="0.773437"/><stop stop-opacity="1" stop-color="rgb(0%, 75.50354%, 88.40332%)" offset="0.78125"/><stop stop-opacity="1" stop-color="rgb(0%, 75.117493%, 88.20343%)" offset="0.796875"/><stop stop-opacity="1" stop-color="rgb(0%, 74.731445%, 88.017273%)" offset="0.804688"/><stop stop-opacity="1" stop-color="rgb(0%, 74.517822%, 87.817383%)" offset="0.8125"/><stop stop-opacity="1" stop-color="rgb(0%, 74.302673%, 87.799072%)" offset="0.816406"/><stop stop-opacity="1" stop-color="rgb(0%, 74.105835%, 87.799072%)" offset="0.820312"/><stop stop-opacity="1" stop-color="rgb(0%, 73.908997%, 87.799072%)" offset="0.824219"/><stop stop-opacity="1" stop-color="rgb(0%, 73.713684%, 87.799072%)" offset="0.828125"/><stop stop-opacity="1" stop-color="rgb(0%, 73.522949%, 87.649536%)" offset="0.84375"/><stop stop-opacity="1" stop-color="rgb(0%, 73.31543%, 87.5%)" offset="0.851562"/><stop stop-opacity="1" stop-color="rgb(0%, 73.100281%, 87.30011%)" offset="0.855469"/><stop stop-opacity="1" stop-color="rgb(0%, 72.901917%, 87.101746%)" offset="0.859375"/><stop stop-opacity="1" stop-color="rgb(0%, 72.706604%, 87.10022%)" offset="0.867188"/><stop stop-opacity="1" stop-color="rgb(0%, 72.505188%, 87.098694%)" offset="0.875"/><stop stop-opacity="1" stop-color="rgb(0%, 72.348022%, 86.91864%)" offset="0.890625"/><stop stop-opacity="1" stop-color="rgb(0%, 71.99707%, 86.71875%)" offset="0.894531"/><stop stop-opacity="1" stop-color="rgb(0%, 71.79718%, 86.698914%)" offset="0.898437"/><stop stop-opacity="1" stop-color="rgb(0%, 71.601868%, 86.698914%)" offset="0.90625"/><stop stop-opacity="1" stop-color="rgb(0%, 71.401978%, 86.506653%)" offset="0.914062"/><stop stop-opacity="1" stop-color="rgb(0%, 71.212769%, 86.306763%)" offset="0.921875"/><stop stop-opacity="1" stop-color="rgb(0%, 70.835876%, 86.299133%)" offset="0.9375"/><stop stop-opacity="1" stop-color="rgb(0%, 70.423889%, 86.100769%)" offset="0.941406"/><stop stop-opacity="1" stop-color="rgb(0%, 70.204163%, 85.903931%)" offset="0.945312"/><stop stop-opacity="1" stop-color="rgb(0%, 70.201111%, 85.900879%)" offset="0.953125"/><stop stop-opacity="1" stop-color="rgb(0%, 70.010376%, 85.899353%)" offset="0.960938"/><stop stop-opacity="1" stop-color="rgb(0%, 69.810486%, 85.714722%)" offset="0.96875"/><stop stop-opacity="1" stop-color="rgb(0%, 69.619751%, 85.514832%)" offset="0.976562"/><stop stop-opacity="1" stop-color="rgb(0%, 69.219971%, 85.499573%)" offset="0.980469"/><stop stop-opacity="1" stop-color="rgb(0%, 69.000244%, 85.499573%)" offset="0.984375"/><stop stop-opacity="1" stop-color="rgb(0%, 68.809509%, 85.308838%)" offset="1"/></linearGradient><clipPath id="ecf5390f14"><path d="M 85.5 47.722656 L 267.75 47.722656 L 267.75 221 L 85.5 221 Z M 85.5 47.722656 " clip-rule="nonzero"/></clipPath></defs><rect x="-37.5" width="450" fill="#ffffff" y="-37.499999" height="449.999989" fill-opacity="1"/><rect x="-37.5" width="450" fill="#ffffff" y="-37.499999" height="449.999989" fill-opacity="1"/><path fill="#fbb03b" d="M 269.148438 163.078125 L 84.269531 163.078125 C 84.269531 112.15625 125.65625 70.875 176.707031 70.875 C 227.761719 70.875 269.148438 112.15625 269.148438 163.078125 " fill-opacity="1" fill-rule="nonzero"/><g clip-path="url(#be4c196ff1)"><path fill="#f15a24" d="M 176.707031 75.539062 C 207.265625 75.539062 234.226562 91.195312 249.949219 114.890625 C 258.316406 127.503906 263.5 142.394531 264.347656 158.414062 L 89.070312 158.414062 C 91.507812 112.300781 129.886719 75.539062 176.707031 75.539062 M 266.191406 125.371094 C 263.804688 119.738281 260.914062 114.386719 257.539062 109.351562 C 254.007812 104.070312 249.945312 99.132812 245.382812 94.582031 C 236.464844 85.6875 226.078125 78.703125 214.511719 73.824219 C 202.535156 68.773438 189.820312 66.210938 176.707031 66.210938 C 163.601562 66.210938 150.882812 68.773438 138.90625 73.824219 C 127.339844 78.703125 116.953125 85.6875 108.039062 94.582031 C 99.121094 103.476562 92.117188 113.835938 87.226562 125.371094 C 82.164062 137.316406 79.59375 150 79.59375 163.078125 C 79.59375 165.65625 81.6875 167.742188 84.269531 167.742188 L 269.148438 167.742188 C 271.730469 167.742188 273.824219 165.65625 273.824219 163.078125 C 273.824219 150 271.257812 137.316406 266.191406 125.371094 " fill-opacity="1" fill-rule="nonzero"/></g><path fill="#f99f36" d="M 94.320312 158.414062 L 89.070312 158.414062 C 91.507812 112.300781 129.886719 75.539062 176.707031 75.539062 C 207.265625 75.539062 234.226562 91.195312 249.949219 114.890625 C 233.855469 94.816406 209.097656 81.941406 181.386719 81.941406 C 136.75 81.941406 99.789062 115.347656 94.320312 158.414062 " fill-opacity="1" fill-rule="nonzero"/><g clip-path="url(#7ee7c827f1)"><g clip-path="url(#35e5b54d1d)"><g clip-path="url(#c94d71ffc0)"><path fill="url(#15d03c8ef2)" d="M 271.460938 174.132812 L 81.582031 174.132812 L 81.582031 240.957031 L 271.460938 240.957031 Z M 271.460938 174.132812 " fill-rule="nonzero"/></g></g></g><path fill="#f15a29" d="M 192.234375 158.4375 C 191.964844 172.285156 180.40625 183.042969 166.039062 182.804688 C 163.949219 182.820312 161.886719 182.589844 159.855469 182.113281 C 157.820312 181.636719 155.871094 180.925781 154.007812 179.980469 C 152.140625 179.035156 150.414062 177.882812 148.828125 176.527344 C 147.238281 175.167969 145.832031 173.640625 144.609375 171.945312 C 143.765625 170.753906 143.144531 169.457031 142.746094 168.050781 C 142.351562 166.644531 142.203125 165.214844 142.304688 163.757812 C 142.304688 162.257812 141.332031 160.734375 140.773438 159.234375 C 140.609375 158.777344 140.195312 158.332031 140.214844 157.910156 C 140.785156 148.015625 145.613281 140.488281 155.453125 136.390625 C 165.292969 132.292969 174.453125 133.75 182.773438 139.980469 C 184.242188 141.027344 185.570312 142.234375 186.75 143.597656 C 187.929688 144.964844 188.929688 146.449219 189.753906 148.054688 C 190.574219 149.660156 191.195312 151.339844 191.617188 153.097656 C 192.035156 154.851562 192.242188 156.632812 192.234375 158.4375 Z M 192.234375 158.4375 " fill-opacity="1" fill-rule="nonzero"/><g clip-path="url(#ecf5390f14)"><path fill="#000000" d="M 188.523438 220.335938 L 133.804688 220.335938 C 133.589844 215.46875 133.394531 210.894531 133.175781 206.0625 L 134.851562 207.097656 C 135.324219 203.523438 135.78125 200.097656 136.234375 196.664062 L 137.269531 196.664062 L 137.269531 208.753906 L 138.394531 208.824219 L 138.394531 205.355469 L 139.152344 205.234375 L 141.910156 212.476562 L 143.273438 212.242188 C 143.078125 208.648438 142.894531 205.066406 142.71875 201.640625 C 142.890625 201.691406 143.054688 201.765625 143.203125 201.867188 C 146.242188 203.992188 146.222656 207.1875 146.230469 210.410156 C 146.328125 211.691406 146.488281 212.964844 146.71875 214.226562 C 150.988281 194.945312 140.617188 141.90625 118.683594 122.1875 L 119.1875 127.601562 L 116.40625 126.765625 C 117.027344 132.976562 117.632812 138.976562 118.21875 144.765625 L 116.097656 143.882812 L 119.40625 150.675781 L 117.875 150.828125 C 118.425781 154.359375 118.980469 157.890625 119.417969 160.746094 C 112.230469 155.675781 109.667969 148.324219 109.78125 130.054688 C 107.960938 134.070312 106.617188 137.042969 105.160156 140.28125 L 103.589844 138.792969 L 102.554688 145.5 L 101.234375 144.796875 L 96.632812 154.660156 C 93.695312 141.203125 98.070312 130.230469 109.6875 121.320312 L 85.914062 128.898438 C 90.128906 121.546875 96.25 118.007812 105.191406 116.101562 L 85.488281 114.269531 C 94.792969 108.535156 103.136719 109.726562 112.574219 113.898438 L 98.492188 95.441406 C 106.535156 97.617188 111.351562 102.316406 115.207031 109.933594 C 116.894531 100.050781 121.84375 93.683594 130.03125 89.492188 L 121.578125 108.621094 C 126.414062 106.375 131.253906 103.113281 136.554688 101.953125 C 141.859375 100.792969 147.679688 101.695312 153.332031 102.574219 L 143.492188 105.679688 L 144.421875 106.984375 L 128.917969 113.195312 C 140.183594 115.480469 149.683594 120.355469 154.96875 132.414062 L 145.734375 127.011719 L 145.734375 129.847656 L 140.320312 123.390625 C 140.050781 124.933594 139.925781 125.65625 139.988281 125.335938 L 121.144531 119.199219 L 120.355469 120.863281 C 132.222656 131.917969 140.183594 145.519531 145.621094 160.519531 C 150.882812 175.007812 155.503906 189.738281 156.929688 205.398438 L 157.53125 201.515625 L 158.792969 203.019531 C 173.140625 186.175781 187.972656 169.65625 201.773438 152.300781 C 214.78125 135.964844 221.042969 117.105469 218.667969 95.878906 C 218.4375 93.890625 217.984375 91.925781 217.632812 90.007812 L 212.621094 92.730469 C 212.691406 92.070312 212.621094 92.875 212.515625 93.695312 C 212.445312 94.347656 212.390625 95.007812 212.296875 96.003906 L 210.449219 93.933594 C 210.242188 96.085938 210.074219 97.855469 209.878906 99.800781 L 207.8125 98.765625 C 206.726562 103.007812 205.671875 107.148438 204.578125 111.488281 L 202.210938 108.867188 L 202.210938 119.519531 L 199.109375 115.84375 L 199.109375 124.683594 L 196.957031 121.910156 L 196.957031 130.554688 C 190.753906 115.8125 193.640625 102.480469 202.746094 89.71875 L 191.117188 95.621094 C 191.230469 95.050781 191.46875 93.765625 191.863281 91.71875 L 183.210938 99.160156 L 185.027344 93.632812 L 177.90625 99.996094 L 178.207031 96.664062 L 171.609375 102.648438 C 178.847656 87.992188 191.085938 81.117188 206.832031 79.699219 L 197.214844 76.59375 L 198.332031 75.113281 L 191.191406 74.578125 L 192.925781 72.507812 L 181.078125 69.960938 C 193.03125 66.046875 203.410156 67.703125 213.488281 75.984375 C 210.054688 65.394531 211.214844 56.390625 216.859375 47.902344 C 217.457031 57.320312 218.035156 66.535156 218.625 75.847656 C 224.34375 64.691406 232.0625 56.515625 244.675781 54.796875 L 227.992188 72.113281 C 232.621094 70.507812 237.222656 68.128906 242.050781 67.464844 C 246.878906 66.804688 252.078125 67.808594 257.113281 68.085938 L 256.996094 69.433594 L 246.269531 71.855469 L 247.964844 73.777344 L 240.507812 74.222656 L 242.019531 75.601562 L 228.765625 80.539062 C 246.238281 79.773438 259.273438 86.933594 267.699219 102.492188 C 266.664062 101.652344 265.628906 100.824219 264.597656 99.945312 C 263.5625 99.066406 262.332031 97.875 260.460938 96.1875 L 261.496094 100.421875 C 259.128906 98.289062 257.171875 96.519531 254.414062 94.046875 L 255.601562 98.796875 L 247.550781 92.121094 C 247.816406 94.015625 247.992188 95.226562 248.230469 96.851562 L 241.492188 90.859375 L 240.136719 91.757812 C 241.359375 94.265625 242.734375 96.679688 244.273438 99.003906 C 250.476562 107.285156 252.605469 116.546875 251.074219 126.878906 C 250.402344 124.433594 249.730469 121.992188 249.007812 119.4375 L 247.09375 121.609375 L 245.421875 113.484375 L 244.738281 113.484375 C 244.480469 114.707031 244.222656 115.925781 243.703125 118.347656 L 240.601562 107.53125 L 238.988281 111.042969 L 232.488281 98.929688 L 231.453125 100.835938 C 230.773438 98.765625 230.171875 96.914062 229.519531 94.945312 L 227.785156 97.222656 C 227.238281 95.441406 226.800781 94.015625 226.183594 91.945312 L 224.226562 95.101562 L 222.71875 91.777344 C 222.046875 92.96875 221.683594 93.269531 221.777344 93.488281 C 227.183594 118.441406 220.03125 140.550781 206.023438 160.847656 C 197.753906 172.886719 188.65625 184.429688 179.992188 196.226562 C 179.28125 197.296875 178.742188 198.449219 178.382812 199.683594 C 182.671875 202.097656 178.722656 206.382812 181.027344 209.488281 L 182.289062 205.886719 Z M 188.523438 220.335938 " fill-opacity="1" fill-rule="nonzero"/></g><path fill="#000000" d="M 211.222656 215.964844 C 204.597656 220.511719 197.019531 222.175781 189.246094 223.148438 C 175.199219 224.835938 161.128906 223.988281 147.058594 223.355469 C 136.492188 222.878906 125.886719 221.773438 115.425781 224.710938 C 117.542969 223.417969 119.792969 222.421875 122.171875 221.71875 C 124.554688 221.015625 126.984375 220.632812 129.464844 220.574219 C 142.015625 220.242188 154.5625 220.191406 167.113281 220.230469 C 179.664062 220.273438 192.058594 221.164062 204.328125 218.089844 C 206.65625 217.507812 208.929688 216.679688 211.222656 215.964844 Z M 211.222656 215.964844 " fill-opacity="1" fill-rule="nonzero"/><path fill="#000000" d="M 140.183594 231.988281 C 146.675781 228.882812 153.625 227.984375 160.757812 227.972656 C 171.507812 227.972656 182.257812 228.316406 192.988281 227.890625 C 200.398438 227.601562 207.78125 226.253906 214.085938 225.511719 C 209.515625 228.132812 204.597656 229.5625 199.335938 229.796875 C 187.601562 230.394531 175.847656 230.652344 164.105469 230.675781 C 156.136719 230.683594 148.132812 230.148438 140.183594 231.988281 Z M 140.183594 231.988281 " fill-opacity="1" fill-rule="nonzero"/><g fill="#000000" fill-opacity="1"><g transform="translate(48.650006, 289.474867)"><g><path d="M 9.5625 -23.8125 L 0.171875 -23.8125 L 0.171875 -29.34375 L 25.734375 -29.34375 L 25.734375 -23.8125 L 16.34375 -23.8125 L 16.34375 0 L 9.5625 0 Z M 9.5625 -23.8125 "/></g></g></g><g fill="#000000" fill-opacity="1"><g transform="translate(74.552341, 289.474867)"><g><path d="M 13.75 0.328125 C 11.375 0.328125 9.242188 -0.164062 7.359375 -1.15625 C 5.472656 -2.144531 4 -3.519531 2.9375 -5.28125 C 1.875 -7.039062 1.34375 -9.039062 1.34375 -11.28125 C 1.34375 -13.507812 1.875 -15.503906 2.9375 -17.265625 C 4 -19.023438 5.472656 -20.398438 7.359375 -21.390625 C 9.242188 -22.390625 11.375 -22.890625 13.75 -22.890625 C 16.125 -22.890625 18.25 -22.390625 20.125 -21.390625 C 22 -20.398438 23.46875 -19.023438 24.53125 -17.265625 C 25.59375 -15.503906 26.125 -13.507812 26.125 -11.28125 C 26.125 -9.039062 25.59375 -7.039062 24.53125 -5.28125 C 23.46875 -3.519531 22 -2.144531 20.125 -1.15625 C 18.25 -0.164062 16.125 0.328125 13.75 0.328125 Z M 13.75 -5.03125 C 15.425781 -5.03125 16.800781 -5.59375 17.875 -6.71875 C 18.957031 -7.851562 19.5 -9.375 19.5 -11.28125 C 19.5 -13.175781 18.957031 -14.6875 17.875 -15.8125 C 16.800781 -16.945312 15.425781 -17.515625 13.75 -17.515625 C 12.070312 -17.515625 10.6875 -16.945312 9.59375 -15.8125 C 8.507812 -14.6875 7.96875 -13.175781 7.96875 -11.28125 C 7.96875 -9.375 8.507812 -7.851562 9.59375 -6.71875 C 10.6875 -5.59375 12.070312 -5.03125 13.75 -5.03125 Z M 13.75 -5.03125 "/></g></g></g><g fill="#000000" fill-opacity="1"><g transform="translate(102.005468, 289.474867)"><g><path d="M 25.734375 -22.546875 L 25.734375 0 L 19.53125 0 L 19.53125 -2.6875 C 18.664062 -1.707031 17.628906 -0.957031 16.421875 -0.4375 C 15.222656 0.0703125 13.925781 0.328125 12.53125 0.328125 C 9.570312 0.328125 7.222656 -0.519531 5.484375 -2.21875 C 3.753906 -3.925781 2.890625 -6.457031 2.890625 -9.8125 L 2.890625 -22.546875 L 9.4375 -22.546875 L 9.4375 -10.78125 C 9.4375 -7.144531 10.957031 -5.328125 14 -5.328125 C 15.5625 -5.328125 16.816406 -5.835938 17.765625 -6.859375 C 18.722656 -7.878906 19.203125 -9.394531 19.203125 -11.40625 L 19.203125 -22.546875 Z M 25.734375 -22.546875 "/></g></g></g><g fill="#000000" fill-opacity="1"><g transform="translate(130.799817, 289.474867)"><g><path d="M 9.265625 -19.578125 C 10.046875 -20.671875 11.097656 -21.492188 12.421875 -22.046875 C 13.753906 -22.609375 15.285156 -22.890625 17.015625 -22.890625 L 17.015625 -16.859375 C 16.296875 -16.910156 15.804688 -16.9375 15.546875 -16.9375 C 13.679688 -16.9375 12.21875 -16.410156 11.15625 -15.359375 C 10.09375 -14.316406 9.5625 -12.742188 9.5625 -10.640625 L 9.5625 0 L 3.015625 0 L 3.015625 -22.546875 L 9.265625 -22.546875 Z M 9.265625 -19.578125 "/></g></g></g><g fill="#000000" fill-opacity="1"><g transform="translate(148.864396, 289.474867)"><g/></g></g><g fill="#000000" fill-opacity="1"><g transform="translate(160.725828, 289.474867)"><g><path d="M 25.03125 -15.265625 C 26.707031 -14.734375 28.019531 -13.84375 28.96875 -12.59375 C 29.914062 -11.351562 30.390625 -9.820312 30.390625 -8 C 30.390625 -5.4375 29.390625 -3.460938 27.390625 -2.078125 C 25.398438 -0.691406 22.488281 0 18.65625 0 L 3.484375 0 L 3.484375 -29.34375 L 17.8125 -29.34375 C 21.394531 -29.34375 24.140625 -28.65625 26.046875 -27.28125 C 27.960938 -25.914062 28.921875 -24.0625 28.921875 -21.71875 C 28.921875 -20.289062 28.578125 -19.015625 27.890625 -17.890625 C 27.210938 -16.773438 26.257812 -15.898438 25.03125 -15.265625 Z M 10.234375 -24.234375 L 10.234375 -17.3125 L 16.984375 -17.3125 C 18.660156 -17.3125 19.929688 -17.601562 20.796875 -18.1875 C 21.660156 -18.78125 22.09375 -19.648438 22.09375 -20.796875 C 22.09375 -21.941406 21.660156 -22.800781 20.796875 -23.375 C 19.929688 -23.945312 18.660156 -24.234375 16.984375 -24.234375 Z M 18.15625 -5.109375 C 19.9375 -5.109375 21.28125 -5.398438 22.1875 -5.984375 C 23.101562 -6.578125 23.5625 -7.488281 23.5625 -8.71875 C 23.5625 -11.144531 21.757812 -12.359375 18.15625 -12.359375 L 10.234375 -12.359375 L 10.234375 -5.109375 Z M 18.15625 -5.109375 "/></g></g></g><g fill="#000000" fill-opacity="1"><g transform="translate(192.789403, 289.474867)"><g><path d="M 25.734375 -22.546875 L 25.734375 0 L 19.53125 0 L 19.53125 -2.6875 C 18.664062 -1.707031 17.628906 -0.957031 16.421875 -0.4375 C 15.222656 0.0703125 13.925781 0.328125 12.53125 0.328125 C 9.570312 0.328125 7.222656 -0.519531 5.484375 -2.21875 C 3.753906 -3.925781 2.890625 -6.457031 2.890625 -9.8125 L 2.890625 -22.546875 L 9.4375 -22.546875 L 9.4375 -10.78125 C 9.4375 -7.144531 10.957031 -5.328125 14 -5.328125 C 15.5625 -5.328125 16.816406 -5.835938 17.765625 -6.859375 C 18.722656 -7.878906 19.203125 -9.394531 19.203125 -11.40625 L 19.203125 -22.546875 Z M 25.734375 -22.546875 "/></g></g></g><g fill="#000000" fill-opacity="1"><g transform="translate(221.583752, 289.474867)"><g><path d="M 25.984375 -31.109375 L 25.984375 0 L 19.75 0 L 19.75 -2.59375 C 18.125 -0.644531 15.773438 0.328125 12.703125 0.328125 C 10.578125 0.328125 8.65625 -0.144531 6.9375 -1.09375 C 5.21875 -2.039062 3.867188 -3.394531 2.890625 -5.15625 C 1.910156 -6.914062 1.421875 -8.957031 1.421875 -11.28125 C 1.421875 -13.59375 1.910156 -15.628906 2.890625 -17.390625 C 3.867188 -19.148438 5.21875 -20.503906 6.9375 -21.453125 C 8.65625 -22.410156 10.578125 -22.890625 12.703125 -22.890625 C 15.578125 -22.890625 17.828125 -21.984375 19.453125 -20.171875 L 19.453125 -31.109375 Z M 13.828125 -5.03125 C 15.484375 -5.03125 16.851562 -5.59375 17.9375 -6.71875 C 19.03125 -7.851562 19.578125 -9.375 19.578125 -11.28125 C 19.578125 -13.175781 19.03125 -14.6875 17.9375 -15.8125 C 16.851562 -16.945312 15.484375 -17.515625 13.828125 -17.515625 C 12.148438 -17.515625 10.765625 -16.945312 9.671875 -15.8125 C 8.585938 -14.6875 8.046875 -13.175781 8.046875 -11.28125 C 8.046875 -9.375 8.585938 -7.851562 9.671875 -6.71875 C 10.765625 -5.59375 12.148438 -5.03125 13.828125 -5.03125 Z M 13.828125 -5.03125 "/></g></g></g><g fill="#000000" fill-opacity="1"><g transform="translate(250.587661, 289.474867)"><g><path d="M 25.984375 -31.109375 L 25.984375 0 L 19.75 0 L 19.75 -2.59375 C 18.125 -0.644531 15.773438 0.328125 12.703125 0.328125 C 10.578125 0.328125 8.65625 -0.144531 6.9375 -1.09375 C 5.21875 -2.039062 3.867188 -3.394531 2.890625 -5.15625 C 1.910156 -6.914062 1.421875 -8.957031 1.421875 -11.28125 C 1.421875 -13.59375 1.910156 -15.628906 2.890625 -17.390625 C 3.867188 -19.148438 5.21875 -20.503906 6.9375 -21.453125 C 8.65625 -22.410156 10.578125 -22.890625 12.703125 -22.890625 C 15.578125 -22.890625 17.828125 -21.984375 19.453125 -20.171875 L 19.453125 -31.109375 Z M 13.828125 -5.03125 C 15.484375 -5.03125 16.851562 -5.59375 17.9375 -6.71875 C 19.03125 -7.851562 19.578125 -9.375 19.578125 -11.28125 C 19.578125 -13.175781 19.03125 -14.6875 17.9375 -15.8125 C 16.851562 -16.945312 15.484375 -17.515625 13.828125 -17.515625 C 12.148438 -17.515625 10.765625 -16.945312 9.671875 -15.8125 C 8.585938 -14.6875 8.046875 -13.175781 8.046875 -11.28125 C 8.046875 -9.375 8.585938 -7.851562 9.671875 -6.71875 C 10.765625 -5.59375 12.148438 -5.03125 13.828125 -5.03125 Z M 13.828125 -5.03125 "/></g></g></g><g fill="#000000" fill-opacity="1"><g transform="translate(279.59157, 289.474867)"><g><path d="M 25.40625 -22.546875 L 15.21875 1.390625 C 14.1875 3.984375 12.90625 5.8125 11.375 6.875 C 9.851562 7.9375 8.019531 8.46875 5.875 8.46875 C 4.695312 8.46875 3.535156 8.285156 2.390625 7.921875 C 1.242188 7.554688 0.304688 7.050781 -0.421875 6.40625 L 1.96875 1.765625 C 2.46875 2.210938 3.046875 2.5625 3.703125 2.8125 C 4.359375 3.0625 5.007812 3.1875 5.65625 3.1875 C 6.550781 3.1875 7.273438 2.96875 7.828125 2.53125 C 8.390625 2.101562 8.894531 1.382812 9.34375 0.375 L 9.4375 0.171875 L -0.328125 -22.546875 L 6.40625 -22.546875 L 12.75 -7.25 L 19.109375 -22.546875 Z M 25.40625 -22.546875 "/></g></g></g><g fill="#000000" fill-opacity="1"><g transform="translate(90.671471, 322.699912)"><g><path d="M 1.234375 0 L 1.234375 -11.65625 L 4.8125 -11.65625 C 6.863281 -11.65625 8.375 -11.128906 9.34375 -10.078125 C 10.3125 -9.035156 10.796875 -7.609375 10.796875 -5.796875 C 10.796875 -4.003906 10.3125 -2.585938 9.34375 -1.546875 C 8.375 -0.515625 6.863281 0 4.8125 0 Z M 2.625 -1.171875 L 4.78125 -1.171875 C 5.90625 -1.171875 6.800781 -1.351562 7.46875 -1.71875 C 8.144531 -2.09375 8.628906 -2.625 8.921875 -3.3125 C 9.210938 -4.007812 9.359375 -4.835938 9.359375 -5.796875 C 9.359375 -6.765625 9.210938 -7.597656 8.921875 -8.296875 C 8.628906 -9.003906 8.144531 -9.546875 7.46875 -9.921875 C 6.800781 -10.296875 5.90625 -10.484375 4.78125 -10.484375 L 2.625 -10.484375 Z M 2.625 -1.171875 "/></g></g></g><g fill="#000000" fill-opacity="1"><g transform="translate(102.258509, 322.699912)"><g><path d="M 2 -10.078125 C 1.71875 -10.078125 1.484375 -10.171875 1.296875 -10.359375 C 1.117188 -10.546875 1.03125 -10.773438 1.03125 -11.046875 C 1.03125 -11.316406 1.117188 -11.539062 1.296875 -11.71875 C 1.484375 -11.894531 1.71875 -11.984375 2 -11.984375 C 2.257812 -11.984375 2.484375 -11.894531 2.671875 -11.71875 C 2.867188 -11.539062 2.96875 -11.316406 2.96875 -11.046875 C 2.96875 -10.773438 2.867188 -10.546875 2.671875 -10.359375 C 2.484375 -10.171875 2.257812 -10.078125 2 -10.078125 Z M 1.296875 0 L 1.296875 -8.25 L 2.703125 -8.25 L 2.703125 0 Z M 1.296875 0 "/></g></g></g><g fill="#000000" fill-opacity="1"><g transform="translate(106.237391, 322.699912)"><g><path d="M 4.3125 0.203125 C 3.320312 0.203125 2.5 -0.046875 1.84375 -0.546875 C 1.1875 -1.046875 0.804688 -1.722656 0.703125 -2.578125 L 2.125 -2.578125 C 2.21875 -2.148438 2.445312 -1.773438 2.8125 -1.453125 C 3.1875 -1.140625 3.691406 -0.984375 4.328125 -0.984375 C 4.910156 -0.984375 5.34375 -1.109375 5.625 -1.359375 C 5.90625 -1.609375 6.046875 -1.90625 6.046875 -2.25 C 6.046875 -2.75 5.863281 -3.082031 5.5 -3.25 C 5.132812 -3.414062 4.628906 -3.5625 3.984375 -3.6875 C 3.535156 -3.78125 3.085938 -3.910156 2.640625 -4.078125 C 2.203125 -4.242188 1.832031 -4.476562 1.53125 -4.78125 C 1.226562 -5.082031 1.078125 -5.484375 1.078125 -5.984375 C 1.078125 -6.710938 1.347656 -7.304688 1.890625 -7.765625 C 2.429688 -8.222656 3.160156 -8.453125 4.078125 -8.453125 C 4.953125 -8.453125 5.671875 -8.234375 6.234375 -7.796875 C 6.796875 -7.359375 7.117188 -6.734375 7.203125 -5.921875 L 5.828125 -5.921875 C 5.765625 -6.347656 5.582031 -6.675781 5.28125 -6.90625 C 4.976562 -7.144531 4.570312 -7.265625 4.0625 -7.265625 C 3.5625 -7.265625 3.175781 -7.160156 2.90625 -6.953125 C 2.632812 -6.742188 2.5 -6.46875 2.5 -6.125 C 2.5 -5.789062 2.671875 -5.53125 3.015625 -5.34375 C 3.367188 -5.15625 3.84375 -4.992188 4.4375 -4.859375 C 4.945312 -4.742188 5.429688 -4.601562 5.890625 -4.4375 C 6.359375 -4.28125 6.738281 -4.046875 7.03125 -3.734375 C 7.320312 -3.421875 7.46875 -2.960938 7.46875 -2.359375 C 7.476562 -1.617188 7.195312 -1.003906 6.625 -0.515625 C 6.0625 -0.0351562 5.289062 0.203125 4.3125 0.203125 Z M 4.3125 0.203125 "/></g></g></g><g fill="#000000" fill-opacity="1"><g transform="translate(114.561415, 322.699912)"><g><path d="M 4.9375 0.203125 C 4.15625 0.203125 3.445312 0.0234375 2.8125 -0.328125 C 2.1875 -0.691406 1.691406 -1.195312 1.328125 -1.84375 C 0.972656 -2.5 0.796875 -3.257812 0.796875 -4.125 C 0.796875 -4.988281 0.972656 -5.742188 1.328125 -6.390625 C 1.691406 -7.046875 2.1875 -7.550781 2.8125 -7.90625 C 3.445312 -8.269531 4.15625 -8.453125 4.9375 -8.453125 C 5.914062 -8.453125 6.738281 -8.195312 7.40625 -7.6875 C 8.082031 -7.175781 8.507812 -6.492188 8.6875 -5.640625 L 7.25 -5.640625 C 7.144531 -6.148438 6.875 -6.546875 6.4375 -6.828125 C 6.007812 -7.109375 5.503906 -7.25 4.921875 -7.25 C 4.460938 -7.25 4.023438 -7.132812 3.609375 -6.90625 C 3.203125 -6.675781 2.867188 -6.328125 2.609375 -5.859375 C 2.359375 -5.390625 2.234375 -4.8125 2.234375 -4.125 C 2.234375 -3.4375 2.359375 -2.859375 2.609375 -2.390625 C 2.867188 -1.929688 3.203125 -1.582031 3.609375 -1.34375 C 4.023438 -1.101562 4.460938 -0.984375 4.921875 -0.984375 C 5.503906 -0.984375 6.007812 -1.125 6.4375 -1.40625 C 6.875 -1.6875 7.144531 -2.085938 7.25 -2.609375 L 8.6875 -2.609375 C 8.519531 -1.773438 8.097656 -1.097656 7.421875 -0.578125 C 6.742188 -0.0546875 5.914062 0.203125 4.9375 0.203125 Z M 4.9375 0.203125 "/></g></g></g><g fill="#000000" fill-opacity="1"><g transform="translate(124.050812, 322.699912)"><g><path d="M 4.90625 0.203125 C 4.132812 0.203125 3.4375 0.0234375 2.8125 -0.328125 C 2.1875 -0.679688 1.691406 -1.179688 1.328125 -1.828125 C 0.972656 -2.484375 0.796875 -3.25 0.796875 -4.125 C 0.796875 -5 0.976562 -5.757812 1.34375 -6.40625 C 1.707031 -7.0625 2.203125 -7.566406 2.828125 -7.921875 C 3.460938 -8.273438 4.164062 -8.453125 4.9375 -8.453125 C 5.71875 -8.453125 6.414062 -8.273438 7.03125 -7.921875 C 7.65625 -7.566406 8.144531 -7.0625 8.5 -6.40625 C 8.863281 -5.757812 9.046875 -5 9.046875 -4.125 C 9.046875 -3.25 8.863281 -2.484375 8.5 -1.828125 C 8.132812 -1.179688 7.640625 -0.679688 7.015625 -0.328125 C 6.390625 0.0234375 5.6875 0.203125 4.90625 0.203125 Z M 4.90625 -1 C 5.382812 -1 5.828125 -1.113281 6.234375 -1.34375 C 6.648438 -1.582031 6.984375 -1.929688 7.234375 -2.390625 C 7.492188 -2.859375 7.625 -3.4375 7.625 -4.125 C 7.625 -4.8125 7.5 -5.390625 7.25 -5.859375 C 7 -6.328125 6.664062 -6.675781 6.25 -6.90625 C 5.84375 -7.132812 5.40625 -7.25 4.9375 -7.25 C 4.46875 -7.25 4.023438 -7.132812 3.609375 -6.90625 C 3.203125 -6.675781 2.867188 -6.328125 2.609375 -5.859375 C 2.359375 -5.390625 2.234375 -4.8125 2.234375 -4.125 C 2.234375 -3.4375 2.359375 -2.859375 2.609375 -2.390625 C 2.867188 -1.929688 3.195312 -1.582031 3.59375 -1.34375 C 4 -1.113281 4.4375 -1 4.90625 -1 Z M 4.90625 -1 "/></g></g></g><g fill="#000000" fill-opacity="1"><g transform="translate(133.906455, 322.699912)"><g><path d="M 3.53125 0 L 0.40625 -8.25 L 1.859375 -8.25 L 4.34375 -1.34375 L 6.84375 -8.25 L 8.265625 -8.25 L 5.140625 0 Z M 3.53125 0 "/></g></g></g><g fill="#000000" fill-opacity="1"><g transform="translate(142.580087, 322.699912)"><g><path d="M 4.859375 0.203125 C 4.066406 0.203125 3.363281 0.0234375 2.75 -0.328125 C 2.144531 -0.691406 1.664062 -1.195312 1.3125 -1.84375 C 0.96875 -2.488281 0.796875 -3.25 0.796875 -4.125 C 0.796875 -4.988281 0.96875 -5.742188 1.3125 -6.390625 C 1.65625 -7.046875 2.132812 -7.550781 2.75 -7.90625 C 3.363281 -8.269531 4.078125 -8.453125 4.890625 -8.453125 C 5.691406 -8.453125 6.382812 -8.269531 6.96875 -7.90625 C 7.550781 -7.550781 7.992188 -7.078125 8.296875 -6.484375 C 8.609375 -5.898438 8.765625 -5.269531 8.765625 -4.59375 C 8.765625 -4.46875 8.757812 -4.34375 8.75 -4.21875 C 8.75 -4.101562 8.75 -3.96875 8.75 -3.8125 L 2.1875 -3.8125 C 2.21875 -3.175781 2.363281 -2.648438 2.625 -2.234375 C 2.882812 -1.816406 3.207031 -1.503906 3.59375 -1.296875 C 3.988281 -1.085938 4.410156 -0.984375 4.859375 -0.984375 C 5.429688 -0.984375 5.910156 -1.113281 6.296875 -1.375 C 6.691406 -1.644531 6.976562 -2.007812 7.15625 -2.46875 L 8.53125 -2.46875 C 8.3125 -1.695312 7.890625 -1.054688 7.265625 -0.546875 C 6.640625 -0.046875 5.835938 0.203125 4.859375 0.203125 Z M 4.859375 -7.265625 C 4.191406 -7.265625 3.597656 -7.0625 3.078125 -6.65625 C 2.566406 -6.257812 2.273438 -5.671875 2.203125 -4.890625 L 7.390625 -4.890625 C 7.359375 -5.628906 7.101562 -6.207031 6.625 -6.625 C 6.144531 -7.050781 5.554688 -7.265625 4.859375 -7.265625 Z M 4.859375 -7.265625 "/></g></g></g><g fill="#000000" fill-opacity="1"><g transform="translate(152.052829, 322.699912)"><g><path d="M 1.140625 0 L 1.140625 -8.25 L 2.40625 -8.25 L 2.53125 -6.671875 C 2.78125 -7.210938 3.164062 -7.644531 3.6875 -7.96875 C 4.207031 -8.289062 4.851562 -8.453125 5.625 -8.453125 L 5.625 -6.984375 L 5.234375 -6.984375 C 4.753906 -6.984375 4.304688 -6.894531 3.890625 -6.71875 C 3.484375 -6.550781 3.15625 -6.257812 2.90625 -5.84375 C 2.664062 -5.4375 2.546875 -4.875 2.546875 -4.15625 L 2.546875 0 Z M 1.140625 0 "/></g></g></g><g fill="#000000" fill-opacity="1"><g transform="translate(158.096074, 322.699912)"><g><path d="M 0.03125 1.984375 L 1 -1.703125 L 2.453125 -1.703125 L 1 1.984375 Z M 0.03125 1.984375 "/></g></g></g><g fill="#000000" fill-opacity="1"><g transform="translate(161.059428, 322.699912)"><g/></g></g><g fill="#000000" fill-opacity="1"><g transform="translate(165.471159, 322.699912)"><g><path d="M 1.234375 0 L 1.234375 -11.65625 L 5.0625 -11.65625 C 5.96875 -11.65625 6.710938 -11.503906 7.296875 -11.203125 C 7.890625 -10.898438 8.328125 -10.492188 8.609375 -9.984375 C 8.890625 -9.472656 9.03125 -8.894531 9.03125 -8.25 C 9.03125 -7.625 8.890625 -7.054688 8.609375 -6.546875 C 8.335938 -6.035156 7.90625 -5.625 7.3125 -5.3125 C 6.726562 -5.007812 5.976562 -4.859375 5.0625 -4.859375 L 2.625 -4.859375 L 2.625 0 Z M 2.625 -6.046875 L 5.03125 -6.046875 C 5.957031 -6.046875 6.617188 -6.238281 7.015625 -6.625 C 7.410156 -7.019531 7.609375 -7.5625 7.609375 -8.25 C 7.609375 -8.945312 7.410156 -9.492188 7.015625 -9.890625 C 6.617188 -10.285156 5.957031 -10.484375 5.03125 -10.484375 L 2.625 -10.484375 Z M 2.625 -6.046875 "/></g></g></g><g fill="#000000" fill-opacity="1"><g transform="translate(175.110385, 322.699912)"><g><path d="M 1.140625 0 L 1.140625 -11.984375 L 2.546875 -11.984375 L 2.546875 0 Z M 1.140625 0 "/></g></g></g><g fill="#000000" fill-opacity="1"><g transform="translate(178.806247, 322.699912)"><g><path d="M 3.890625 0.203125 C 3.203125 0.203125 2.628906 0.0859375 2.171875 -0.140625 C 1.722656 -0.378906 1.382812 -0.691406 1.15625 -1.078125 C 0.9375 -1.472656 0.828125 -1.894531 0.828125 -2.34375 C 0.828125 -3.1875 1.148438 -3.832031 1.796875 -4.28125 C 2.441406 -4.738281 3.316406 -4.96875 4.421875 -4.96875 L 6.65625 -4.96875 L 6.65625 -5.078125 C 6.65625 -5.796875 6.46875 -6.335938 6.09375 -6.703125 C 5.71875 -7.078125 5.210938 -7.265625 4.578125 -7.265625 C 4.035156 -7.265625 3.566406 -7.128906 3.171875 -6.859375 C 2.773438 -6.585938 2.523438 -6.191406 2.421875 -5.671875 L 1 -5.671875 C 1.050781 -6.273438 1.25 -6.78125 1.59375 -7.1875 C 1.945312 -7.59375 2.382812 -7.90625 2.90625 -8.125 C 3.425781 -8.34375 3.984375 -8.453125 4.578125 -8.453125 C 5.734375 -8.453125 6.597656 -8.144531 7.171875 -7.53125 C 7.753906 -6.914062 8.046875 -6.097656 8.046875 -5.078125 L 8.046875 0 L 6.8125 0 L 6.71875 -1.484375 C 6.488281 -1.015625 6.148438 -0.613281 5.703125 -0.28125 C 5.253906 0.0390625 4.648438 0.203125 3.890625 0.203125 Z M 4.109375 -0.984375 C 4.640625 -0.984375 5.097656 -1.117188 5.484375 -1.390625 C 5.867188 -1.671875 6.160156 -2.03125 6.359375 -2.46875 C 6.554688 -2.914062 6.65625 -3.382812 6.65625 -3.875 L 6.65625 -3.890625 L 4.546875 -3.890625 C 3.722656 -3.890625 3.140625 -3.75 2.796875 -3.46875 C 2.460938 -3.1875 2.296875 -2.832031 2.296875 -2.40625 C 2.296875 -1.976562 2.453125 -1.632812 2.765625 -1.375 C 3.085938 -1.113281 3.535156 -0.984375 4.109375 -0.984375 Z M 4.109375 -0.984375 "/></g></g></g><g fill="#000000" fill-opacity="1"><g transform="translate(187.812846, 322.699912)"><g><path d="M 1.140625 0 L 1.140625 -8.25 L 2.40625 -8.25 L 2.5 -6.765625 C 2.757812 -7.296875 3.140625 -7.707031 3.640625 -8 C 4.140625 -8.300781 4.707031 -8.453125 5.34375 -8.453125 C 6.320312 -8.453125 7.097656 -8.15625 7.671875 -7.5625 C 8.253906 -6.96875 8.546875 -6.054688 8.546875 -4.828125 L 8.546875 0 L 7.15625 0 L 7.15625 -4.671875 C 7.15625 -6.390625 6.445312 -7.25 5.03125 -7.25 C 4.3125 -7.25 3.71875 -6.988281 3.25 -6.46875 C 2.78125 -5.957031 2.546875 -5.226562 2.546875 -4.28125 L 2.546875 0 Z M 1.140625 0 "/></g></g></g><g fill="#000000" fill-opacity="1"><g transform="translate(197.335537, 322.699912)"><g><path d="M 0.03125 1.984375 L 1 -1.703125 L 2.453125 -1.703125 L 1 1.984375 Z M 0.03125 1.984375 "/></g></g></g><g fill="#000000" fill-opacity="1"><g transform="translate(200.298892, 322.699912)"><g/></g></g><g fill="#000000" fill-opacity="1"><g transform="translate(204.710622, 322.699912)"><g><path d="M 1.234375 0 L 1.234375 -11.65625 L 8.4375 -11.65625 L 8.4375 -10.5 L 2.625 -10.5 L 2.625 -6.4375 L 7.9375 -6.4375 L 7.9375 -5.3125 L 2.625 -5.3125 L 2.625 -1.140625 L 8.4375 -1.140625 L 8.4375 0 Z M 1.234375 0 "/></g></g></g><g fill="#000000" fill-opacity="1"><g transform="translate(214.100122, 322.699912)"><g><path d="M 0.3125 0 L 3.171875 -4.125 L 0.3125 -8.25 L 1.828125 -8.25 L 4.140625 -4.84375 L 6.46875 -8.25 L 7.96875 -8.25 L 5.109375 -4.125 L 7.96875 0 L 6.46875 0 L 4.140625 -3.40625 L 1.828125 0 Z M 0.3125 0 "/></g></g></g><g fill="#000000" fill-opacity="1"><g transform="translate(222.390853, 322.699912)"><g><path d="M 1.140625 3.65625 L 1.140625 -8.25 L 2.40625 -8.25 L 2.546875 -6.890625 C 2.816406 -7.285156 3.195312 -7.644531 3.6875 -7.96875 C 4.175781 -8.289062 4.804688 -8.453125 5.578125 -8.453125 C 6.398438 -8.453125 7.113281 -8.265625 7.71875 -7.890625 C 8.332031 -7.515625 8.804688 -7 9.140625 -6.34375 C 9.484375 -5.6875 9.65625 -4.941406 9.65625 -4.109375 C 9.65625 -3.273438 9.484375 -2.535156 9.140625 -1.890625 C 8.804688 -1.242188 8.332031 -0.734375 7.71875 -0.359375 C 7.101562 0.015625 6.382812 0.203125 5.5625 0.203125 C 4.882812 0.203125 4.28125 0.0664062 3.75 -0.203125 C 3.226562 -0.484375 2.828125 -0.875 2.546875 -1.375 L 2.546875 3.65625 Z M 5.40625 -1.015625 C 5.957031 -1.015625 6.441406 -1.144531 6.859375 -1.40625 C 7.285156 -1.664062 7.617188 -2.023438 7.859375 -2.484375 C 8.109375 -2.953125 8.234375 -3.5 8.234375 -4.125 C 8.234375 -4.75 8.109375 -5.289062 7.859375 -5.75 C 7.617188 -6.21875 7.285156 -6.582031 6.859375 -6.84375 C 6.441406 -7.101562 5.957031 -7.234375 5.40625 -7.234375 C 4.851562 -7.234375 4.363281 -7.101562 3.9375 -6.84375 C 3.519531 -6.582031 3.1875 -6.21875 2.9375 -5.75 C 2.695312 -5.289062 2.578125 -4.75 2.578125 -4.125 C 2.578125 -3.5 2.695312 -2.953125 2.9375 -2.484375 C 3.1875 -2.023438 3.519531 -1.664062 3.9375 -1.40625 C 4.363281 -1.144531 4.851562 -1.015625 5.40625 -1.015625 Z M 5.40625 -1.015625 "/></g></g></g><g fill="#000000" fill-opacity="1"><g transform="translate(232.845829, 322.699912)"><g><path d="M 1.140625 0 L 1.140625 -11.984375 L 2.546875 -11.984375 L 2.546875 0 Z M 1.140625 0 "/></g></g></g><g fill="#000000" fill-opacity="1"><g transform="translate(236.541691, 322.699912)"><g><path d="M 4.90625 0.203125 C 4.132812 0.203125 3.4375 0.0234375 2.8125 -0.328125 C 2.1875 -0.679688 1.691406 -1.179688 1.328125 -1.828125 C 0.972656 -2.484375 0.796875 -3.25 0.796875 -4.125 C 0.796875 -5 0.976562 -5.757812 1.34375 -6.40625 C 1.707031 -7.0625 2.203125 -7.566406 2.828125 -7.921875 C 3.460938 -8.273438 4.164062 -8.453125 4.9375 -8.453125 C 5.71875 -8.453125 6.414062 -8.273438 7.03125 -7.921875 C 7.65625 -7.566406 8.144531 -7.0625 8.5 -6.40625 C 8.863281 -5.757812 9.046875 -5 9.046875 -4.125 C 9.046875 -3.25 8.863281 -2.484375 8.5 -1.828125 C 8.132812 -1.179688 7.640625 -0.679688 7.015625 -0.328125 C 6.390625 0.0234375 5.6875 0.203125 4.90625 0.203125 Z M 4.90625 -1 C 5.382812 -1 5.828125 -1.113281 6.234375 -1.34375 C 6.648438 -1.582031 6.984375 -1.929688 7.234375 -2.390625 C 7.492188 -2.859375 7.625 -3.4375 7.625 -4.125 C 7.625 -4.8125 7.5 -5.390625 7.25 -5.859375 C 7 -6.328125 6.664062 -6.675781 6.25 -6.90625 C 5.84375 -7.132812 5.40625 -7.25 4.9375 -7.25 C 4.46875 -7.25 4.023438 -7.132812 3.609375 -6.90625 C 3.203125 -6.675781 2.867188 -6.328125 2.609375 -5.859375 C 2.359375 -5.390625 2.234375 -4.8125 2.234375 -4.125 C 2.234375 -3.4375 2.359375 -2.859375 2.609375 -2.390625 C 2.867188 -1.929688 3.195312 -1.582031 3.59375 -1.34375 C 4 -1.113281 4.4375 -1 4.90625 -1 Z M 4.90625 -1 "/></g></g></g><g fill="#000000" fill-opacity="1"><g transform="translate(246.397333, 322.699912)"><g><path d="M 1.140625 0 L 1.140625 -8.25 L 2.40625 -8.25 L 2.53125 -6.671875 C 2.78125 -7.210938 3.164062 -7.644531 3.6875 -7.96875 C 4.207031 -8.289062 4.851562 -8.453125 5.625 -8.453125 L 5.625 -6.984375 L 5.234375 -6.984375 C 4.753906 -6.984375 4.304688 -6.894531 3.890625 -6.71875 C 3.484375 -6.550781 3.15625 -6.257812 2.90625 -5.84375 C 2.664062 -5.4375 2.546875 -4.875 2.546875 -4.15625 L 2.546875 0 Z M 1.140625 0 "/></g></g></g><g fill="#000000" fill-opacity="1"><g transform="translate(252.440578, 322.699912)"><g><path d="M 4.859375 0.203125 C 4.066406 0.203125 3.363281 0.0234375 2.75 -0.328125 C 2.144531 -0.691406 1.664062 -1.195312 1.3125 -1.84375 C 0.96875 -2.488281 0.796875 -3.25 0.796875 -4.125 C 0.796875 -4.988281 0.96875 -5.742188 1.3125 -6.390625 C 1.65625 -7.046875 2.132812 -7.550781 2.75 -7.90625 C 3.363281 -8.269531 4.078125 -8.453125 4.890625 -8.453125 C 5.691406 -8.453125 6.382812 -8.269531 6.96875 -7.90625 C 7.550781 -7.550781 7.992188 -7.078125 8.296875 -6.484375 C 8.609375 -5.898438 8.765625 -5.269531 8.765625 -4.59375 C 8.765625 -4.46875 8.757812 -4.34375 8.75 -4.21875 C 8.75 -4.101562 8.75 -3.96875 8.75 -3.8125 L 2.1875 -3.8125 C 2.21875 -3.175781 2.363281 -2.648438 2.625 -2.234375 C 2.882812 -1.816406 3.207031 -1.503906 3.59375 -1.296875 C 3.988281 -1.085938 4.410156 -0.984375 4.859375 -0.984375 C 5.429688 -0.984375 5.910156 -1.113281 6.296875 -1.375 C 6.691406 -1.644531 6.976562 -2.007812 7.15625 -2.46875 L 8.53125 -2.46875 C 8.3125 -1.695312 7.890625 -1.054688 7.265625 -0.546875 C 6.640625 -0.046875 5.835938 0.203125 4.859375 0.203125 Z M 4.859375 -7.265625 C 4.191406 -7.265625 3.597656 -7.0625 3.078125 -6.65625 C 2.566406 -6.257812 2.273438 -5.671875 2.203125 -4.890625 L 7.390625 -4.890625 C 7.359375 -5.628906 7.101562 -6.207031 6.625 -6.625 C 6.144531 -7.050781 5.554688 -7.265625 4.859375 -7.265625 Z M 4.859375 -7.265625 "/></g></g></g></svg>